<?xml version="1.0" standalone="no"?>
<!DOCTYPE svg PUBLIC "-//W3C//DTD SVG 20010904//EN"
 "http://www.w3.org/TR/2001/REC-SVG-20010904/DTD/svg10.dtd">
<svg version="1.0" xmlns="http://www.w3.org/2000/svg"
 width="528.000000pt" height="560.000000pt" viewBox="0 0 528.000000 560.000000"
 preserveAspectRatio="xMidYMid meet">
<metadata>
Created by potrace 1.15, written by Peter Selinger 2001-2017
</metadata>
<g transform="translate(0.000000,560.000000) scale(0.100000,-0.100000)"
fill="#000000" stroke="none">
<path d="M2153 5333 c-46 -2 -83 -8 -83 -13 0 -6 -27 -10 -60 -10 -33 0 -60
-4 -60 -10 0 -5 -22 -10 -50 -10 -27 0 -50 -4 -50 -10 0 -5 -18 -10 -40 -10
-22 0 -40 -4 -40 -10 0 -5 -13 -10 -30 -10 -16 0 -30 -4 -30 -10 0 -5 -13 -10
-30 -10 -16 0 -30 -4 -30 -10 0 -5 -13 -10 -30 -10 -16 0 -30 -4 -30 -10 0 -5
-9 -10 -20 -10 -11 0 -20 -4 -20 -10 0 -5 -9 -10 -20 -10 -11 0 -20 -4 -20
-10 0 -5 -9 -10 -20 -10 -11 0 -20 -4 -20 -10 0 -5 -9 -10 -20 -10 -11 0 -20
-4 -20 -10 0 -5 -8 -10 -18 -10 -10 0 -24 -9 -32 -20 -8 -11 -21 -20 -28 -20
-8 0 -26 -13 -40 -28 -15 -15 -43 -39 -62 -52 -38 -27 -100 -89 -100 -102 0
-4 -18 -27 -40 -49 -22 -23 -40 -48 -40 -55 0 -8 -4 -14 -10 -14 -5 0 -10 -6
-10 -13 0 -7 -9 -23 -20 -35 -11 -12 -20 -28 -20 -37 0 -8 -4 -15 -10 -15 -5
0 -10 -9 -10 -20 0 -11 -4 -20 -10 -20 -5 0 -10 -9 -10 -20 0 -11 -4 -20 -10
-20 -5 0 -10 -13 -10 -30 0 -16 -4 -30 -10 -30 -5 0 -10 -9 -10 -19 0 -11 -4
-23 -10 -26 -5 -3 -10 -17 -10 -30 0 -13 -4 -27 -10 -30 -5 -3 -10 -22 -10
-41 0 -19 -4 -34 -10 -34 -5 0 -10 -15 -10 -34 0 -19 -4 -38 -10 -41 -5 -3
-10 -24 -10 -46 0 -21 -4 -39 -10 -39 -5 0 -10 -22 -10 -49 0 -28 -4 -53 -10
-56 -6 -4 -10 -88 -10 -221 0 -136 4 -214 10 -214 6 0 10 -22 10 -50 0 -27 5
-50 10 -50 6 0 10 -20 10 -44 0 -25 5 -48 10 -51 6 -3 10 -24 10 -46 0 -21 5
-39 10 -39 6 0 10 -28 10 -64 0 -36 5 -68 10 -71 13 -8 13 -112 0 -120 -5 -3
-10 -19 -10 -36 0 -16 -4 -29 -10 -29 -5 0 -10 -8 -10 -18 0 -10 -9 -24 -20
-32 -11 -8 -20 -20 -20 -27 0 -6 -17 -25 -37 -40 -21 -15 -50 -40 -65 -55 -14
-16 -32 -28 -40 -28 -7 0 -20 -9 -28 -20 -8 -11 -21 -20 -28 -20 -8 0 -27 -13
-42 -30 -15 -16 -33 -30 -40 -30 -16 0 -180 -169 -180 -186 0 -8 -4 -14 -10
-14 -5 0 -10 -9 -10 -20 0 -11 -4 -20 -10 -20 -5 0 -10 -9 -10 -19 0 -11 -6
-21 -12 -24 -19 -6 -19 -508 0 -515 6 -2 12 -17 12 -33 0 -16 5 -29 10 -29 6
0 10 -9 10 -20 0 -11 5 -20 10 -20 6 0 10 -8 10 -18 0 -10 9 -24 20 -32 11 -8
20 -21 20 -28 0 -8 13 -26 28 -40 15 -15 35 -37 44 -50 8 -13 53 -62 99 -110
87 -91 109 -121 109 -147 0 -8 5 -15 10 -15 6 0 10 -9 10 -20 0 -11 -4 -20
-10 -20 -5 0 -10 -13 -10 -30 0 -16 -4 -30 -10 -30 -5 0 -10 -7 -10 -15 0 -9
-9 -25 -20 -37 -11 -12 -20 -28 -20 -35 0 -7 -4 -13 -10 -13 -5 0 -10 -8 -10
-18 0 -10 -9 -24 -20 -32 -11 -8 -20 -21 -20 -30 0 -9 -9 -22 -20 -30 -11 -8
-20 -21 -20 -30 0 -9 -9 -22 -20 -30 -11 -8 -20 -20 -20 -28 0 -7 -9 -22 -20
-34 -11 -12 -20 -28 -20 -35 0 -7 -4 -13 -10 -13 -5 0 -10 -9 -10 -20 0 -11
-4 -20 -10 -20 -5 0 -10 -9 -10 -19 0 -11 -3 -21 -7 -23 -11 -4 -53 -87 -53
-104 0 -8 -4 -14 -10 -14 -5 0 -10 -10 -10 -23 0 -13 -6 -29 -13 -35 -17 -18
-17 -393 1 -399 6 -3 12 -13 12 -24 0 -10 5 -19 10 -19 6 0 10 -8 10 -18 0
-10 9 -24 20 -32 11 -8 20 -20 20 -26 0 -7 17 -26 38 -44 20 -17 50 -43 66
-57 16 -14 41 -32 55 -39 39 -20 4123 -20 4162 0 14 7 39 25 55 39 16 14 46
40 67 57 20 18 37 37 37 44 0 6 9 18 20 26 11 8 20 22 20 32 0 10 5 18 10 18
6 0 10 9 10 20 0 11 5 20 10 20 6 0 10 9 10 19 0 11 5 23 10 26 6 4 10 65 10
151 0 89 -4 144 -10 144 -5 0 -10 13 -10 29 0 17 -4 33 -10 36 -5 3 -10 17
-10 31 0 13 -4 24 -10 24 -5 0 -10 6 -10 14 0 17 -42 100 -52 104 -5 2 -8 12
-8 23 0 10 -4 19 -10 19 -5 0 -10 9 -10 20 0 11 -4 20 -10 20 -5 0 -10 6 -10
13 0 7 -9 23 -20 35 -11 12 -20 27 -20 34 0 8 -9 20 -20 28 -11 8 -20 21 -20
30 0 9 -9 22 -20 30 -11 8 -20 21 -20 30 0 9 -9 22 -20 30 -11 8 -20 22 -20
32 0 10 -4 18 -10 18 -5 0 -10 6 -10 13 0 7 -9 23 -20 35 -11 12 -20 28 -20
37 0 8 -4 15 -10 15 -5 0 -10 14 -10 30 0 17 -4 30 -10 30 -5 0 -10 9 -10 20
0 11 5 20 10 20 6 0 10 7 10 15 0 26 22 56 109 147 46 48 91 97 99 110 9 13
29 35 44 50 15 14 28 32 28 40 0 7 9 20 20 28 11 8 20 22 20 32 0 10 5 18 10
18 6 0 10 9 10 20 0 11 5 20 10 20 6 0 10 14 10 30 0 17 5 30 10 30 6 0 10 15
10 34 0 19 4 38 10 41 6 4 10 78 10 190 0 112 -4 186 -10 190 -5 3 -10 19 -10
36 0 16 -4 29 -10 29 -5 0 -10 9 -10 20 0 11 -4 20 -10 20 -5 0 -10 9 -10 20
0 11 -4 20 -10 20 -5 0 -10 6 -10 14 0 17 -164 186 -180 186 -7 0 -25 14 -40
30 -15 17 -34 30 -42 30 -7 0 -20 9 -28 20 -8 11 -21 20 -28 20 -8 0 -26 12
-40 28 -15 15 -44 40 -64 55 -21 15 -38 34 -38 40 0 7 -9 19 -20 27 -11 8 -20
22 -20 32 0 10 -4 18 -10 18 -5 0 -10 13 -10 29 0 17 -4 33 -10 36 -5 3 -10
30 -10 60 0 30 5 57 10 60 6 3 10 35 10 71 0 36 4 64 10 64 6 0 10 18 10 39 0
22 5 43 10 46 6 3 10 26 10 51 0 24 5 44 10 44 6 0 10 23 10 50 0 28 5 50 10
50 6 0 10 78 10 214 0 133 -4 217 -10 221 -5 3 -10 28 -10 56 0 27 -4 49 -10
49 -5 0 -10 18 -10 39 0 22 -4 43 -10 46 -5 3 -10 22 -10 41 0 19 -4 34 -10
34 -5 0 -10 15 -10 34 0 19 -4 38 -10 41 -5 3 -10 17 -10 30 0 13 -4 27 -10
30 -5 3 -10 15 -10 26 0 10 -4 19 -10 19 -5 0 -10 14 -10 30 0 17 -4 30 -10
30 -5 0 -10 9 -10 20 0 11 -4 20 -10 20 -5 0 -10 9 -10 20 0 11 -4 20 -10 20
-5 0 -10 7 -10 15 0 9 -9 25 -20 37 -11 12 -20 28 -20 35 0 7 -4 13 -10 13 -5
0 -10 6 -10 14 0 7 -18 32 -40 55 -22 22 -40 45 -40 49 0 13 -62 75 -100 102
-19 13 -47 37 -62 52 -14 15 -32 28 -40 28 -7 0 -20 9 -28 20 -8 11 -22 20
-32 20 -10 0 -18 5 -18 10 0 6 -9 10 -20 10 -11 0 -20 5 -20 10 0 6 -9 10 -20
10 -11 0 -20 5 -20 10 0 6 -9 10 -20 10 -11 0 -20 5 -20 10 0 6 -9 10 -20 10
-11 0 -20 5 -20 10 0 6 -13 10 -30 10 -16 0 -30 5 -30 10 0 6 -13 10 -30 10
-16 0 -30 5 -30 10 0 6 -13 10 -30 10 -16 0 -30 5 -30 10 0 6 -18 10 -40 10
-22 0 -40 5 -40 10 0 6 -22 10 -50 10 -27 0 -50 5 -50 10 0 6 -26 10 -59 10
-38 0 -61 4 -63 12 -3 9 -116 13 -479 14 -261 0 -511 -1 -556 -3z m824 -1057
c84 -120 195 -246 339 -385 119 -114 133 -131 110 -131 -15 0 -37 7 -50 15
-13 9 -55 25 -92 36 -87 26 -282 31 -329 8 -35 -17 -44 -47 -20 -65 15 -11 7
-16 -57 -34 -40 -12 -93 -32 -118 -44 -72 -34 -177 -30 -260 10 -36 17 -89 37
-118 45 -38 9 -48 15 -37 21 22 13 18 45 -7 62 -13 8 -49 17 -80 21 l-57 7
137 68 c75 38 178 95 227 128 110 73 249 193 301 261 21 27 44 50 49 51 6 0
34 -33 62 -74z m-686 -675 c73 -28 116 -74 134 -142 70 -260 -107 -438 -435
-438 -89 0 -170 13 -231 37 -37 15 -97 69 -117 106 -63 117 -53 312 19 373 42
36 56 42 164 69 78 20 111 22 250 20 135 -3 169 -7 216 -25z m1154 13 c16 -8
38 -13 49 -10 27 7 95 -25 129 -61 32 -35 57 -115 57 -189 0 -207 -171 -333
-450 -333 -140 0 -232 25 -294 80 -84 74 -118 221 -81 358 16 63 53 106 114
133 63 29 117 36 291 37 122 1 161 -2 185 -15z m-720 -168 l35 -15 0 -85 c0
-201 97 -338 279 -392 80 -25 313 -24 396 1 141 42 242 121 291 228 23 50 29
79 32 152 2 50 9 96 14 103 7 7 36 12 79 12 106 0 109 -5 109 -188 0 -112 -4
-160 -17 -197 -21 -62 -85 -127 -144 -147 l-44 -15 -11 -69 c-17 -102 -31
-156 -61 -232 -98 -247 -265 -439 -500 -576 l-63 -37 0 -183 0 -183 113 -7
c61 -3 130 -9 153 -12 38 -5 41 -8 37 -32 -16 -97 -82 -192 -223 -317 -30 -26
-80 -71 -110 -99 -30 -28 -75 -69 -100 -90 -25 -21 -70 -62 -100 -90 -138
-129 -223 -196 -250 -196 -27 0 -112 67 -250 196 -30 28 -75 69 -100 90 -25
21 -70 62 -100 90 -30 28 -80 73 -110 99 -140 124 -202 211 -224 316 -5 25 -3
27 37 33 23 3 93 9 155 12 l112 7 0 183 0 183 -62 37 c-236 137 -403 329 -501
576 -30 76 -44 130 -61 232 l-11 69 -44 15 c-59 20 -123 85 -144 147 -19 55
-24 315 -7 359 9 25 13 26 84 26 55 0 77 -4 87 -16 7 -9 15 -55 19 -107 10
-157 65 -262 170 -324 88 -54 147 -66 305 -66 199 0 305 35 410 134 76 72 109
148 113 267 4 88 5 93 30 107 35 19 133 19 177 1z"/>
<path d="M2075 3471 c-45 -20 -70 -60 -70 -112 0 -42 5 -53 33 -81 28 -28 39
-33 82 -33 43 0 54 5 82 33 28 28 33 39 33 82 0 42 -5 54 -31 81 -33 33 -92
46 -129 30z"/>
<path d="M3115 3471 c-45 -20 -70 -60 -70 -112 0 -42 5 -53 33 -81 28 -28 39
-33 82 -33 43 0 54 5 82 33 28 28 33 39 33 82 0 42 -5 54 -31 81 -33 33 -92
46 -129 30z"/>
<path d="M2363 2581 c11 -84 74 -171 153 -211 39 -20 64 -25 124 -25 60 0 85
5 124 25 79 40 142 127 153 211 l6 39 -283 0 -283 0 6 -39z"/>
</g>
</svg>
